# xmcd CD database generated by RipIT
#
# Track frame offsets:
# 150
# 16676
# 32626
# 48724
# 64218
# 80625
# 97538
# 109315
# 127710
# 145338
#
# Disc length: 2154 seconds
#
# Revision: 1
# Processed by: cddbd v1.5.2PL0 Copyright (c) Steve Scherf et al.
# Submitted via: RipIT 3.9.0 www.suwald.com/ripit/ripit.html on 2017-08-07 at 21:57
#
DISCID=7a08680a
DTITLE=Pokey LaFarge - Manic Revelations
DYEAR=2017
DGENRE=Folk
TTITLE0=Riot in the Streets
TTITLE1=Must be a Reason
TTITLE2=Better Man Than Me
TTITLE3=Bad Dreams
TTITLE4=Mother Nature
TTITLE5=Silent Movie
TTITLE6=Good Luck Charm
TTITLE7=Going to the Country
TTITLE8=Wellington
TTITLE9=I Will Never Change
EXTD=
EXTT0=
EXTT1=
EXTT2=
EXTT3=
EXTT4=
EXTT5=
EXTT6=
EXTT7=
EXTT8=
EXTT9=
PLAYORDER=
